<svg xmlns:xlink="http://www.w3.org/1999/xlink" xmlns="http://www.w3.org/2000/svg" viewBox="0 0 296.7674216481641 59.14017218560779" preserveAspectRatio="xMidYMid meet" class="css-f87xc7" id="fefaffeh" width="300"  height="60" ><defs id="SvgjsDefs1001"></defs><g id="SvgjsG1007" featurekey="symbolFeature-0" transform="matrix(1.0925097159621526,0,0,1.0925097159621526,-8.127179918740643,-25.008027328307584)" fill="#111111"><path xmlns="http://www.w3.org/2000/svg" fill="#111111" d="M7.439,32.959"></path><path xmlns="http://www.w3.org/2000/svg" fill="#111111" d="M17,62.5c0,2.485-2.015,4.5-4.5,4.5l0,0C10.015,67,8,64.985,8,62.5v-25c0-2.485,2.015-4.5,4.5-4.5l0,0  c2.485,0,4.5,2.015,4.5,4.5V62.5z"></path><path xmlns="http://www.w3.org/2000/svg" fill="#111111" d="M30,63c0,2.209-1.791,4-4,4l0,0c-2.209,0-4-1.791-4-4V37c0-2.209,1.791-4,4-4l0,0c2.209,0,4,1.791,4,4V63z"></path><path xmlns="http://www.w3.org/2000/svg" fill="#111111" d="M42,63.5c0,1.933-1.567,3.5-3.5,3.5l0,0c-1.933,0-3.5-1.567-3.5-3.5v-27c0-1.933,1.567-3.5,3.5-3.5l0,0  c1.933,0,3.5,1.567,3.5,3.5V63.5z"></path><path xmlns="http://www.w3.org/2000/svg" fill="#111111" d="M53,64c0,1.657-1.343,3-3,3l0,0c-1.657,0-3-1.343-3-3V36c0-1.657,1.343-3,3-3l0,0c1.657,0,3,1.343,3,3V64z"></path><path xmlns="http://www.w3.org/2000/svg" fill="#111111" d="M63,64.5c0,1.381-1.119,2.5-2.5,2.5l0,0c-1.381,0-2.5-1.119-2.5-2.5v-29c0-1.381,1.119-2.5,2.5-2.5l0,0  c1.381,0,2.5,1.119,2.5,2.5V64.5z"></path><path xmlns="http://www.w3.org/2000/svg" fill="#111111" d="M72,65c0,1.105-0.895,2-2,2l0,0c-1.105,0-2-0.895-2-2V35c0-1.105,0.895-2,2-2l0,0c1.105,0,2,0.895,2,2V65z"></path><path xmlns="http://www.w3.org/2000/svg" fill="#111111" d="M80,65.5c0,0.828-0.672,1.5-1.5,1.5l0,0c-0.828,0-1.5-0.672-1.5-1.5v-31c0-0.828,0.672-1.5,1.5-1.5l0,0  c0.828,0,1.5,0.672,1.5,1.5V65.5z"></path><path xmlns="http://www.w3.org/2000/svg" fill="#111111" d="M87,66c0,0.552-0.448,1-1,1l0,0c-0.552,0-1-0.448-1-1V34c0-0.552,0.448-1,1-1l0,0c0.552,0,1,0.448,1,1V66z"></path><path xmlns="http://www.w3.org/2000/svg" fill="#111111" d="M92,66.5c0,0.276-0.224,0.5-0.5,0.5l0,0c-0.276,0-0.5-0.224-0.5-0.5v-33c0-0.276,0.224-0.5,0.5-0.5l0,0  c0.276,0,0.5,0.224,0.5,0.5V66.5z"></path></g><g id="SvgjsG1008" featurekey="nameFeature-0" transform="matrix(1.7145728346374782,0,0,1.7145728346374782,105.82753755003347,-18.310814284560067)" fill="#111111"><path d="M22.36 44.4 l0 -4.68 c0 -0.44 -0.44 -0.8 -1 -0.8 l-11.52 0 l0 -27.16 c0 -0.52 -0.32 -0.96 -0.76 -0.96 l-4.68 0 c-0.44 0 -0.8 0.44 -0.8 0.96 l0 32.64 c0 0.44 0.36 0.76 0.8 0.76 l16.96 0 c0.56 0 1 -0.32 1 -0.76 z M49.474000000000004 13.68 c2.36 1.84 3.68 4.48 3.68 7.28 c0 2.76 -1.32 5.4 -3.68 7.28 c-2.32 1.88 -5.56 2.84 -9.32 2.88 l-5.56 0 l0 13.24 c0 0.44 -0.32 0.8 -0.76 0.8 l-4.68 0 c-0.44 0 -0.8 -0.36 -0.8 -0.8 l0 -19.52 l6.16 0 l-6.16 -10.04 l0 -3.2 c0 -0.44 0.36 -0.8 0.8 -0.8 l10.92 0 c3.8 0 7.04 1 9.4 2.88 z M37.074 17.04 l4.68 7.72 c3.4 -0.44 5.16 -2.12 5.16 -3.8 c0 -1.96 -2.36 -3.92 -6.84 -3.92 l-3 0 z M77.30799999999999 16.24 l0 -4.68 c0 -0.44 -0.44 -0.8 -0.96 -0.8 l-17 0 c-0.44 0 -0.8 0.36 -0.8 0.8 l0 4.68 c0 0.44 0.36 0.8 0.8 0.8 l10.88 0 l-11.32 21.16 c-0.24 0.52 -0.36 1.04 -0.36 1.6 l0 4.56 c0 0.44 0.36 0.8 0.8 0.8 l17 0 c0.52 0 0.96 -0.36 0.96 -0.8 l0 -4.68 c0 -0.44 -0.44 -0.76 -0.96 -0.76 l-10.72 0 l11.32 -21.2 c0.24 -0.48 0.36 -0.96 0.36 -1.48 z M108.02199999999999 43.68 c-6.84 3.04 -15.16 1.4 -20.24 -4.6 c-6.16 -7.24 -5.28 -18.16 2 -24.32 c6.12 -5.2 14.88 -5.36 21.16 -0.88 l0.12 0.08 l0.08 0.08 c0.32 0.36 0.28 0.88 -0.04 1.16 l-3.76 3.16 c-0.24 0.2 -0.56 0.24 -0.88 0.08 c-3.88 -2.28 -9 -1.96 -12.64 1.12 c-4.6 3.92 -5.16 10.84 -1.24 15.48 c3.64 4.28 9.92 5.08 14.48 2 c0 0 0.04 0 0.04 -0.04 c0.32 -0.2 0.8 -0.12 1.04 0.2 l3 3.56 c0.32 0.32 0.28 0.84 -0.04 1.12 c-0.04 0 -0.04 0 -0.04 0.04 l-0.04 0 l0 0.04 c-0.96 0.68 -1.96 1.24 -3 1.72 z" fill="#111111"></path></g></svg>