<svg xmlns:xlink="http://www.w3.org/1999/xlink" xmlns="http://www.w3.org/2000/svg" height="125.21496263874182" width="320" style="width: 320px; height: 125.215px; position: absolute; top: 50%; left: 50%; transform: translate(-50%, -50%) scale(1); z-index: 0; cursor: pointer;"><defs id="SvgjsDefs1001"></defs><g id="SvgjsG1007" featurekey="odWo6G-0" transform="matrix(1.3146585856567692,0,0,1.3146585856567692,-15.732519304584606,-2.8237617578503453)" fill="#FEF4E8"><g xmlns="http://www.w3.org/2000/svg" fill="#FEF4E8"><g fill="#FEF4E8"><path d="M85.351,13.957c-3.575-3.575-9.371-3.575-12.946,0c-3.204,3.204-3.534,8.19-0.996,11.764L60.537,36.592    c-1.924-1.338-4.259-2.123-6.775-2.123c-2.725,0-5.239,0.922-7.247,2.469l-7.636-7.636c1.604-2.71,1.242-6.261-1.087-8.59    c-2.759-2.759-7.231-2.758-9.989,0c-2.759,2.758-2.759,7.231,0,9.989c2.336,2.336,5.901,2.693,8.614,1.072l7.673,7.673    c-1.139,1.587-1.896,3.465-2.139,5.499H30.122c-0.785-4.259-4.515-7.486-9-7.485c-5.056,0-9.155,4.099-9.155,9.155    c0,5.056,4.098,9.155,9.155,9.155c4.433,0,8.129-3.151,8.973-7.334h11.951c0.886,5.031,4.944,8.981,10.027,9.707v12.42    c-4.28,0.768-7.528,4.507-7.528,9.008c0,5.056,4.099,9.155,9.155,9.155c5.056,0,9.155-4.099,9.155-9.155    c0-4.418-3.129-8.104-7.292-8.964V58.126c5.709-0.87,10.097-5.813,10.097-11.761c0-2.788-0.964-5.354-2.576-7.384l10.848-10.848    c3.545,2.281,8.318,1.873,11.42-1.229C88.926,23.329,88.926,17.532,85.351,13.957z M53.762,54.661    c-4.574,0-8.295-3.721-8.295-8.295c0-4.574,3.721-8.295,8.295-8.295s8.295,3.721,8.295,8.295    C62.057,50.94,58.336,54.661,53.762,54.661z" fill="#FEF4E8"></path></g></g></g><g id="SvgjsG1008" featurekey="VGK2BT-0" transform="matrix(6.7529896155112885,0,0,6.7529896155112885,111.4168815852977,-43.494850003046196)" fill="#FFFFFF"><path d="M2.8475 6.441000000000001 l-1.3053 0 c-0.16933 0 -0.27119 0.11864 -0.27119 0.27119 l0 12.61 c0 0.38983 0.23746 0.6778 0.66119 0.6778 l0.91525 0 c0.16949 0 0.27119 -0.10153 0.27119 -0.28797 l0 -13 c0 -0.15254 -0.11864 -0.27119 -0.27119 -0.27119 z M9.677833898305085 11.5256 c1.9831 0 3.8814 1.6271 3.8814 4.1695 c0 2.4746 -1.5424 4.4064 -3.9322 4.4064 c-0.91525 0 -1.6949 -0.30475 -2.2881 -0.71153 l0 4.8303 c0 0.49153 -0.52542 0.76271 -0.89831 0.76271 l-0.67797 0 c-0.15254 0 -0.27119 -0.11864 -0.27119 -0.27119 l0 -11.644 c0 -0.52542 -0.084746 -0.79661 -0.13559 -1.1017 c-0.033732 -0.18644 0.017115 -0.35593 0.18661 -0.35593 l1.1525 0 c0.37288 0 0.62729 0.23729 0.64407 0.57627 c0.57627 -0.35593 1.3219 -0.66102 2.3388 -0.66102 z M9.338833898305085 18.3902 c1.3729 0 2.4068 -1.0169 2.4068 -2.6949 c0 -1.7288 -1.2712 -2.4576 -2.339 -2.4576 c-0.76271 0 -1.4576 0.27119 -2.0678 0.66102 l0 3.9322 c0.54237 0.30508 1.1864 0.55932 2 0.55932 z M18.06777966101695 18.1525 l3.6268 -0.00016552 c0.18644 0 0.28831 0.084746 0.28831 0.27119 l0 1.3053 c0 0.18644 -0.11864 0.27102 -0.28814 0.27102 l-6 0 c-0.37288 0 -0.54237 -0.42356 -0.38983 -0.6778 l0.27119 -0.42373 l3.5593 -5.4407 l-3.5254 0 c-0.16949 0 -0.27119 -0.084746 -0.27119 -0.27119 l0 -1.3051 c0 -0.18644 0.10169 -0.27119 0.27119 -0.27119 l5.9832 0 c0.30508 0 0.45763 0.35593 0.33898 0.59322 l-0.22034 0.37288 z M30.813406779661015 18.4746 c0.10169 0.15254 0.10136 0.27119 -0.01728 0.39 c-0.74576 0.71186 -1.7288 1.2541 -2.9153 1.2541 c-2.339 0 -4.339 -1.8812 -4.339 -4.288 c0 -2.4237 2 -4.339 4.339 -4.339 c1.1864 0 2.1525 0.49153 2.8475 1.1864 c0.11864 0.11881 0.11864 0.25441 0.016949 0.38983 l-0.64407 0.81356 c-0.10169 0.13559 -0.20339 0.15254 -0.40678 0.016949 c-0.42373 -0.42373 -1 -0.67797 -1.7627 -0.67797 c-1.61 0 -2.61 1.2542 -2.61 2.5932 c0 1.322 1 2.5932 2.6271 2.5932 c0.76271 0 1.3051 -0.28814 1.7966 -0.77966 c0.18644 -0.15254 0.30525 -0.10169 0.4239 0.033898 z" fill="#FFFFFF"></path></g></svg>