<svg width="86" height="38" viewBox="0 0 86 38" fill="none" xmlns="http://www.w3.org/2000/svg">
<path d="M9.11138 32.229C9.11138 34.9439 7.07145 37.1453 4.55569 37.1453C2.03994 37.1453 0 34.9439 0 32.229V4.91629C0 2.20141 2.03994 0 4.55569 0C7.07145 0 9.11138 2.20141 9.11138 4.91629V32.229Z" fill="#FAA405"/>
<path d="M22.2722 32.7753C22.2722 35.1886 20.4591 37.1453 18.2227 37.1453C15.9864 37.1453 14.1732 35.1886 14.1732 32.7753V4.37004C14.1732 1.95668 15.9864 0 18.2227 0C20.4591 0 22.2722 1.95668 22.2722 4.37004V32.7753Z" fill="#FAA405"/>
<path d="M34.4207 33.3215C34.4207 35.4334 32.8343 37.1453 30.8774 37.1453C28.9205 37.1453 27.3341 35.4334 27.3341 33.3215V3.82378C27.3341 1.71196 28.9205 0 30.8774 0C32.8343 0 34.4207 1.71196 34.4207 3.82378V33.3215Z" fill="#FAA405"/>
<path d="M45.5569 33.8678C45.5569 35.6781 44.1973 37.1453 42.5198 37.1453C40.8423 37.1453 39.4827 35.6781 39.4827 33.8678V3.27753C39.4827 1.46724 40.8423 0 42.5198 0C44.1973 0 45.5569 1.46724 45.5569 3.27753V33.8678Z" fill="#FAA405"/>
<path d="M55.6807 34.4141C55.6807 35.9228 54.5478 37.1453 53.1497 37.1453C51.7516 37.1453 50.6188 35.9228 50.6188 34.4141V2.73127C50.6188 1.22252 51.7516 0 53.1497 0C54.5478 0 55.6807 1.22252 55.6807 2.73127V34.4141Z" fill="#FAA405"/>
<path d="M64.7921 34.9603C64.7921 36.1675 63.886 37.1453 62.7673 37.1453C61.6486 37.1453 60.7426 36.1675 60.7426 34.9603V2.18502C60.7426 0.977796 61.6486 0 62.7673 0C63.886 0 64.7921 0.977796 64.7921 2.18502V34.9603Z" fill="#FAA405"/>
<path d="M72.891 35.5066C72.891 36.4112 72.2107 37.1453 71.3724 37.1453C70.5342 37.1453 69.8539 36.4112 69.8539 35.5066V1.63876C69.8539 0.734166 70.5342 0 71.3724 0C72.2107 0 72.891 0.734166 72.891 1.63876V35.5066Z" fill="#FAA405"/>
<path d="M79.9776 36.0528C79.9776 36.6559 79.5241 37.1453 78.9653 37.1453C78.4064 37.1453 77.9529 36.6559 77.9529 36.0528V1.09251C77.9529 0.489444 78.4064 0 78.9653 0C79.5241 0 79.9776 0.489444 79.9776 1.09251V36.0528Z" fill="#FAA405"/>
<path d="M85.0396 36.5991C85.0396 36.9006 84.8128 37.1453 84.5334 37.1453C84.254 37.1453 84.0272 36.9006 84.0272 36.5991V0.546255C84.0272 0.244722 84.254 0 84.5334 0C84.8128 0 85.0396 0.244722 85.0396 0.546255V36.5991Z" fill="#FAA405"/>
</svg>
